<?xml version="1.0" encoding="UTF-8" standalone="no"?>
<!-- Created with Inkscape (http://www.inkscape.org/) -->

<svg
   xmlns:dc="http://purl.org/dc/elements/1.1/"
   xmlns:cc="http://creativecommons.org/ns#"
   xmlns:rdf="http://www.w3.org/1999/02/22-rdf-syntax-ns#"
   xmlns:svg="http://www.w3.org/2000/svg"
   xmlns="http://www.w3.org/2000/svg"
   xmlns:sodipodi="http://sodipodi.sourceforge.net/DTD/sodipodi-0.dtd"
   xmlns:inkscape="http://www.inkscape.org/namespaces/inkscape"
   width="211.03682mm"
   height="222.75731mm"
   viewBox="0 0 211.03682 222.75731"
   version="1.1"
   id="svg8"
   inkscape:version="0.92.1 r15371"
   sodipodi:docname="desenhando.svg">
  <defs
     id="defs2" />
  <sodipodi:namedview
     id="base"
     pagecolor="#ffffff"
     bordercolor="#666666"
     borderopacity="1.0"
     inkscape:pageopacity="0.0"
     inkscape:pageshadow="2"
     inkscape:zoom="0.7"
     inkscape:cx="597.84714"
     inkscape:cy="407.64999"
     inkscape:document-units="mm"
     inkscape:current-layer="layer1"
     showgrid="false"
     inkscape:window-width="1680"
     inkscape:window-height="997"
     inkscape:window-x="-8"
     inkscape:window-y="-8"
     inkscape:window-maximized="1"
     fit-margin-top="0"
     fit-margin-left="0"
     fit-margin-right="0"
     fit-margin-bottom="0" />
  <metadata
     id="metadata5">
    <rdf:RDF>
      <cc:Work
         rdf:about="">
        <dc:format>image/svg+xml</dc:format>
        <dc:type
           rdf:resource="http://purl.org/dc/dcmitype/StillImage" />
        <dc:title></dc:title>
      </cc:Work>
    </rdf:RDF>
  </metadata>
  <g
     inkscape:label="Camada 1"
     inkscape:groupmode="layer"
     id="layer1"
     transform="translate(5.1838385,-29.966097)">
    <path
       style="fill:#000000;stroke-width:0.25400001"
       d="m -5.180525,252.51218 c 30.385055,-18.76892 65.972412,-33.1691 85.304815,-37.50257 19.332403,-4.33347 21.44719,-3.34709 27.13674,-3.64933 5.68955,-0.30224 6.26958,-0.19851 13.39428,-0.27462 18.84748,-0.20135 23.13056,-0.34811 30.48001,-1.04443 6.91477,-0.65513 8.92677,-0.97111 12.7,-1.99451 1.2573,-0.34101 3.6576,-0.9806 5.334,-1.4213 6.78828,-1.78454 15.52106,-5.43285 20.828,-8.70134 6.96072,-4.3805 13.15297,-10.65443 13.27233,-16.74115 0.26527,-13.5276 -4.87995,-20.20045 -13.30039,-27.62429 -1.26291,-1.1176 -7.34585,-4.38306 -8.79844,-4.72321 l -0.6985,-0.16356 v 3.09223 c 0,3.2019 -0.20869,4.07484 -0.97414,4.07484 -0.9334,0 -1.05786,-0.49869 -1.05786,-4.23861 v -3.629 l -1.72967,-0.87105 c -0.95132,-0.47908 -2.40865,-1.06746 -3.2385,-1.30752 -0.82986,-0.24006 -2.70898,-0.94904 -4.17583,-1.57551 -5.92568,-2.53079 -8.99723,-3.51675 -14.7904,-4.74769 -1.57443,-0.33454 -3.10503,-0.68396 -3.40134,-0.77649 -0.5218,-0.16295 -0.54324,-0.0778 -0.6822,2.71032 -0.21217,4.2568 -0.64237,8.23233 -1.06901,9.87877 -0.20738,0.80031 -0.37705,2.10335 -0.37705,2.89564 0,0.7923 -0.11833,1.66162 -0.26294,1.93184 -0.31258,0.58406 -1.07413,0.6416 -1.51181,0.11423 -0.42816,-0.51591 -0.35579,-3.36032 0.13354,-5.24872 0.48213,-1.86062 0.86214,-5.52576 1.05357,-10.16167 l 0.14322,-3.46846 -2.97571,-0.92893 c -3.19953,-0.99881 -4.34402,-1.77076 -5.85248,-3.94747 -1.55309,-2.97832 -0.008,-7.39161 1.72543,-10.01869 0.89293,-1.33105 1.53382,-1.94339 3.01737,-2.883 1.036,-0.65614 2.20868,-1.45017 2.60597,-1.76449 0.84078,-0.6652 1.37167,-0.72815 1.57922,-0.18727 0.20737,0.5404 -0.12009,0.86301 -2.81525,2.77347 -1.92027,1.36118 -2.55452,1.98014 -3.28417,3.205 -1.55461,3.02127 -2.77518,6.58686 -0.69294,8.90642 1.29943,1.47665 5.11357,3.33614 6.87751,3.10901 0.27362,-0.27362 0.46995,-4.75289 0.49135,-11.21006 -0.41532,-6.51393 1.1564,-10.2981 3.3329,-16.05807 2.23833,-5.90993 3.96661,-10.90156 3.83557,-11.23558 -0.74628,-0.13981 -0.80185,-0.268 -1.50252,-0.51315 -1.81809,-0.63611 -3.61957,-1.96039 -4.20721,-3.09274 -0.36308,-0.69964 -0.50191,-1.45359 -0.493,-2.67731 0.0253,-3.47118 1.58236,-5.40273 6.19974,-7.69072 1.62108,-0.80328 3.06268,-1.4605 3.20356,-1.4605 0.14087,0 0.33078,-0.48578 0.42203,-1.079497 0.46043,-2.99603 2.11995,-8.2835 2.16708,-6.90465 0.01,0.28867 -0.095,1.14592 -0.23313,1.905 -0.32967,1.81221 -0.95763,6.578017 -1.28628,9.762147 -0.14419,1.397 -0.61591,4.29025 -1.04827,6.42944 -0.44972,2.22514 -0.68967,2.62247 -0.94494,3.97368 0.48363,0.10244 9.25522,1.99946 13.29105,2.56632 2.0358,0.28595 4.53519,0.90016 7.62,1.87258 l 4.59052,1.44707 0.19316,-1.54055 c 0.17697,-1.41142 1.5354,-10.16029 3.09848,-19.955537 0.75874,-4.75471 1.27108,-6.604 1.82965,-6.604 0.45287,0 0.48182,-0.54838 -0.40227,7.619997 -0.29484,2.72415 -0.94596,7.5819 -1.44693,10.795 -0.50098,3.2131 -0.97149,6.89064 -1.04558,8.17232 l -0.13473,2.33032 2.63711,1.31512 c 3.95431,1.97201 4.79611,2.9929 4.79611,5.81653 0,1.7408 -0.94216,3.4388 -2.46292,4.43877 -1.39127,0.91482 -4.3291,2.09561 -5.70352,2.29239 l -1.18144,0.16916 -0.2875,1.5757 c -0.51367,9.18318 -3.36556,19.4203 -3.57262,27.37359 v 1.41458 l 2.0955,0.82285 c 3.00906,1.18158 7.0522,3.50494 9.14252,5.25367 9.02172,7.07735 13.37545,18.56885 12.82668,27.78284 -0.54878,9.21399 -5.57987,12.58793 -11.23922,17.19311 -4.56752,3.71673 -7.32485,4.45929 -13.96848,7.28444 -4.30295,1.82979 -5.93047,2.32208 -11.811,3.87905 -6.61954,1.75263 -9.14675,2.2916 -11.811,2.51886 -1.1176,0.0953 -3.46075,0.34151 -5.207,0.54705 -4.72115,0.55569 -13.64186,0.87469 -30.09901,1.07631 -8.1026,0.0993 -10.04447,-0.22532 -15.113,0.34388 -5.511277,0.61892 -10.611053,0.26119 -24.91002,3.48723 -14.298967,3.22604 -56.819157,19.12108 -79.227018,34.76285 -1.67984998,1.35433 -3.045027,0.80438 -4.730747,0.80438 -0.93879,0 -1.65926,-0.0453 -1.60105,-0.10076 z M 178.67672,142.82144 c 1.1783,-8.63284 2.428,-17.91487 3.57785,-25.8445 1.98975,-13.31628 1.96673,-13.08685 1.34612,-13.41899 -0.44882,-0.2402 -2.26983,-0.82227 -7.72545,-2.46937 -1.06155,-0.3205 -3.28615,-0.77025 -4.94355,-0.99945 -2.68555,-0.13736 -11.70692,-2.22269 -12.77662,-2.39442 -0.89137,3.22419 -2.2218,7.03775 -3.20898,9.75723 -3.20019,6.9651 -3.85805,12.96321 -3.93642,19.812 -0.1297,7.97741 -0.0978,9.44439 0.21098,9.70491 0.20008,0.16879 1.00568,0.43825 1.79022,0.59879 5.24571,1.07342 10.14804,2.47147 13.49145,3.8475 2.02565,0.83369 4.91181,1.9605 6.41368,2.50403 1.50188,0.54352 3.27353,1.2708 3.937,1.61617 0.66348,0.34537 1.27344,0.63327 1.35549,0.63977 0.082,0.007 0.29275,-1.50264 0.46823,-3.35367 z m 9.2724,-29.58866 c 0.997,-0.39115 2.19603,-1.09725 2.73679,-1.61167 0.84217,-0.80114 0.96241,-1.06173 0.96241,-2.08589 0,-1.92389 -0.33266,-2.3271 -3.08722,-3.74202 -1.37543,-0.70651 -2.50145,-1.25097 -2.50225,-1.20991 -7.7e-4,0.0411 -0.11775,0.76045 -0.25986,1.59865 -0.31608,1.86423 -1.00867,6.95457 -1.00867,7.41335 0,0.53433 1.2338,0.39274 3.1588,-0.36251 z M 157.83214,91.89444 c 0.84684,-3.62813 1.8,-8.7554 1.65872,-8.92268 -0.0447,-0.0529 -0.6285,0.23913 -1.29739,0.64894 -0.66888,0.40981 -1.7305,1.01435 -2.35915,1.34342 -1.87898,0.98356 -2.56242,1.55053 -3.3322,2.76435 -0.62888,0.99164 -0.7318,1.4069 -0.7318,2.95268 0,2.0283 0.26759,2.5808 1.66965,3.44732 0.83785,0.51782 2.6398,1.06772 3.30317,1.24148 0.15059,0.009 0.64065,-1.55464 1.089,-3.47551 z m -52.54383,115.58552 c -2.43932,-0.12616 -7.192785,-0.61895 -8.509005,-0.88214 -2.06139,-0.41219 -6.80876,-1.93432 -9.07277,-2.90896 -31.230108,-10.05007 -47.852052,-39.91074 -54.27193,-69.31292 -1.70982,-8.8658 -1.86691,-11.28033 -1.67726,-25.781 0.0904,-6.91515 0.789922,-11.67081 1.271818,-13.0627 5.602563,-16.182267 10.335099,-29.202159 20.759321,-37.533708 14.075816,-11.250082 29.848,-20.601624 46.246376,-24.65365 9.28376,-2.294009 17.49491,-3.628407 26.99557,-3.33982 12.0435,0.365827 23.25301,5.564146 32.55453,14.114105 1.21941,1.128962 1.51239,1.547559 1.45128,2.07356 -0.13585,1.169335 -0.948,0.946244 -2.88098,-0.791375 C 149.55262,38.050845 136.64308,31.852877 127.07335,32.037781 100.8874,32.54374 73.187263,43.630324 55.537204,59.4895 42.219313,71.456076 40.953116,80.434885 36.208433,95.30469 c -0.725593,2.27401 -2.282328,11.22086 -2.273178,22.30725 0.004,4.9941 0.41347,9.94122 1.11393,13.462 0.22234,1.1176 0.62472,3.2893 0.89417,4.826 0.26945,1.5367 0.76735,3.7084 1.10646,4.826 8.399925,29.13525 27.370242,50.56914 50.65677,60.42786 7.99956,3.41518 11.58175,3.97169 25.582725,3.97441 17.58514,0.003 22.66906,-0.70097 33.23391,-4.60471 1.55875,-0.57596 4.10009,-1.47979 5.64741,-2.00851 3.46682,-1.1846 4.26353,-1.58562 5.62651,-2.83205 1.52046,-1.39044 2.86752,-1.26077 2.86001,0.2753 -0.007,1.46514 -3.49156,3.9314 -6.82628,4.83165 -0.50466,0.13624 -2.98805,0.92785 -5.51864,1.75913 -6.39439,2.10052 -11.45913,3.49764 -14.44891,3.98574 -4.72005,0.77058 -21.32871,1.31996 -28.57501,0.9452 z M 65.628155,173.2941 c -1.81367,-2.32669 -3.26931,-4.56742 -4.73915,-7.29516 -1.1668,-2.16535 -2.38395,-4.22275 -2.70477,-4.572 -7.336317,-11.13347 -14.387879,-26.85259 -15.38137,-38.61498 7.7e-4,-0.3531 0.17388,-0.88818 0.38464,-1.18908 4.472091,-2.41569 8.822579,-2.09889 13.49882,-2.10554 -0.112241,-0.65607 -0.263,-1.57245 0.22863,-1.94639 0.62142,-0.45439 3.13754,-0.42752 5.18647,0.0554 6.817396,1.59567 15.51129,2.55968 21.90242,3.90625 0.74001,0.27119 1.91697,0.57143 2.61547,0.66718 1.51577,0.20779 2.921,0.744 2.921,1.1146 0,0.4009 -3.87431,0.32961 -5.55134,-0.10214 -7.194467,-1.19402 -14.778232,-2.77075 -22.26166,-2.76024 -1.528904,0.19391 -17.046681,0.51465 -16.84631,2.68387 3.95583,11.16364 6.234701,23.7806 12.02124,32.70347 2.09144,2.97538 4.302944,6.39244 5.79761,9.16801 8.347514,14.74971 22.178932,21.76919 38.029785,20.30072 2.92899,-0.28509 2.36242,-0.35518 3.06236,-0.96223 0.20653,-4.4925 0.42321,-8.94163 0.49417,-12.6315 0.19704,-10.62046 0.20144,-10.68441 0.987,-14.351 0.434,-2.02565 1.1821,-6.36905 1.66246,-9.652 0.48037,-3.28295 1.05579,-6.7691 1.27871,-7.747 0.22604,-0.99155 0.47075,-3.60374 0.55324,-5.90562 0.15845,-4.42177 0.38751,-5.27652 1.26837,-4.73286 0.70754,0.4367 0.63177,7.99189 -0.12071,12.03548 -0.29896,1.60655 -0.78125,4.7498 -1.07175,6.985 -0.2905,2.2352 -0.93951,6.06425 -1.44224,8.509 l -0.91406,4.445 -0.1758,10.668 c -0.14839,9.0046 -0.24803,10.97524 -0.63903,12.63842 l -0.46324,1.97042 -1.2939,0.38564 c -14.33469,3.2921 -31.029364,-4.37534 -38.287065,-13.66872 z m 55.738315,6.80948 c -0.70299,-0.3057 -0.8918,-0.60474 -1.397,-2.21256 -0.56031,-1.78318 -0.58322,-2.18573 -0.56125,-9.86008 0.018,-6.28948 0.11192,-8.46284 0.43899,-10.16 1.31853,-6.84162 1.53269,-9.09212 1.67994,-17.653 0.14255,-8.28813 0.15018,-8.38286 0.68142,-8.45868 0.91514,-0.13061 1.14977,1.44955 1.29418,8.71577 0.14044,7.06653 -0.0873,9.56732 -1.52647,16.76091 -0.50693,2.53389 -0.55851,3.5507 -0.55404,10.922 0.004,6.8481 0.0689,8.28799 0.41114,9.144 0.37872,0.94724 0.47293,1.01476 1.39207,0.99764 0.54223,-0.0101 2.52891,-0.51728 4.41486,-1.12707 3.52322,-1.13918 6.23951,-1.47767 6.86327,-0.85528 0.47074,0.46971 -1.02792,1.1936 -5.67038,2.73896 -4.49966,1.49783 -5.95989,1.70266 -7.46673,1.04739 z m 66.47185,-0.0218 c -2.47794,-0.36164 -5.14041,-0.36763 -7.47839,-0.73902 -4.42091,-0.70191 -8.71257,-1.30909 -13.09561,-2.17618 -4.70089,-0.93655 -7.89058,-1.24089 -13.589,-1.29657 -4.91673,-0.048 -6.23944,0.15821 -9.08481,1.41657 -1.65408,0.73151 -5.88803,1.77454 -6.4023,1.57719 -0.93112,-0.3573 -0.88288,-1.03637 0.23439,-3.2998 0.70459,-1.42738 1.24937,-3.0073 1.52795,-4.43116 0.23811,-1.21705 0.51052,-2.60142 0.60535,-3.07636 0.22901,-1.14693 0.94707,-1.6071 1.45029,-0.92942 0.74525,1.0036 0.37456,4.56985 -0.78168,7.5202 -0.70845,1.80775 -0.64868,1.83272 2.03681,0.85118 3.89518,-1.4237 5.05108,-1.61693 9.652,-1.61353 5.20135,0.004 10.35912,0.48499 14.478,1.35058 7.44369,1.62403 14.93098,2.25035 22.44024,3.17472 1.095,0.13679 1.64209,0.11356 1.70527,-0.0724 0.0512,-0.15059 0.39721,-1.7597 0.76897,-3.5758 0.6383,-3.11814 0.66735,-3.56929 0.52172,-8.10234 -0.0848,-2.64019 -0.20883,-4.85495 -0.27557,-4.92169 -0.0667,-0.0667 -0.95458,0.0119 -1.97299,0.17466 -2.66085,0.42536 -15.50963,0.73828 -35.44314,0.86317 -14.55516,0.0912 -17.3355,0.0529 -17.3355,-0.23909 0,-0.19124 0.0857,-0.34974 0.1905,-0.35222 0.10477,-0.003 1.2192,-0.11725 2.4765,-0.25503 5.7251,-0.62739 9.52979,-0.75574 26.543,-0.89544 9.98855,-0.082 19.24685,-0.25808 20.574,-0.39125 5.72517,-0.57448 5.71719,-0.57429 6.1451,-0.14638 0.31688,0.31688 0.44304,1.24607 0.58209,4.28709 0.22429,4.9056 0.10146,7.87696 -0.49126,11.88352 -0.30985,2.09449 -0.60298,3.28305 -0.86136,3.4925 -0.477,0.38667 -2.24491,0.35985 -5.12057,-0.0777 z m 3.89094,-27.70024 c -0.0905,-0.23571 0.22698,-1.12485 0.74813,-2.0955 1.32133,-2.46104 2.71654,-6.66302 3.63381,-9.5404 1.76108,-5.52434 3.22665,-10.61173 3.87223,-16.24468 1.57115,-13.70884 -0.9411,-21.10099 -4.23263,-35.22435 -0.8273,-1.80291 0.20396,-2.80815 0.99709,-0.98682 2.76332,14.34433 6.37196,20.79616 4.46575,36.85757 -0.62542,5.26969 -2.00533,10.41328 -3.22844,15.57862 -0.92856,3.9214 -3.59911,10.56097 -4.69289,11.65475 -0.52703,0.52704 -1.36093,0.52747 -1.56302,7.6e-4 z m -82.24995,-28.55743 c -6.87851,-1.5494 -12.198538,-5.12086 -11.333325,-12.20781 1.546562,-6.68618 8.806975,-12.38042 14.564385,-12.0839 3.07859,0.18755 4.26577,0.5337 5.47486,1.59628 l 0.94608,0.83145 -1.651,-0.51698 c -1.41601,-0.44339 -2.06063,-0.4951 -4.52908,-0.36328 -6.81637,1.66023 -12.35276,6.40663 -12.36172,11.96011 0.51725,6.22983 5.73016,8.22185 10.8576,8.255 3.47221,-0.11782 9.09437,-3.42827 9.82057,-6.60909 0.81791,-3.81381 -0.35929,-7.01678 -3.09116,-8.41048 -0.99166,-0.5059 -4.34065,-0.92739 -8.82421,-1.11056 -1.84149,-0.0752 -2.00472,-0.34251 -0.81495,-1.33443 0.90015,-0.75046 2.01433,-1.05804 4.51384,-1.2461 2.33955,-0.17602 5.05769,0.21468 6.45581,0.92795 3.7035,2.56308 4.94462,5.74662 4.76521,9.2163 -1.19667,8.03621 -8.61799,11.88281 -14.79291,11.09554 z m 25.01901,-2.53104 c -2.58445,-0.52706 -5.14252,-1.03597 -5.68459,-1.1309 -1.67714,-0.29374 -0.65642,-0.71069 2.06004,-0.8415 3.86924,-0.18632 9.00781,0.63536 9.56704,1.52981 0.35149,0.56219 -0.0699,1.31886 -0.76144,1.36719 -0.26513,0.0186 -2.5966,-0.39753 -5.18105,-0.9246 z m 5.461,-7.39032 c -2.80159,-0.80361 -8.14116,-0.89784 -10.1772,-2.67895 -1.00562,-0.93198 -0.26152,-1.85107 1.08437,-1.33936 2.61013,0.93491 9.76688,0.86544 11.28842,2.17266 0.57646,0.52169 0.60461,1.19439 0.0723,1.72674 -0.43453,0.43453 -0.73268,0.45016 -2.26785,0.11891 z m -50.165005,-4.08127 c -6.238357,-0.99655 -12.946247,0.0688 -19.33441,-1.61409 -0.75163,-0.20683 -2.56674,-0.65769 -4.03359,-1.00192 -2.738598,-0.52335 -5.367365,-1.64951 -8.128,-2.02982 -3.284877,-0.53056 -6.661627,-1.39382 -9.75078,-1.40667 -2.66031,0 -3.22546,-0.17311 -3.54297,-1.08526 -0.0977,-0.28068 0.0461,-0.65313 0.38188,-0.98888 0.50422,-0.50421 0.7098,-0.52813 3.219,-0.37461 1.47421,0.0902 4.34392,0.51415 6.37713,0.94211 5.63189,1.18543 4.2044,0.81814 14.31506,3.68325 2.725886,0.77363 5.51882,1.02805 8.30468,1.42555 1.04775,0.15014 3.6195,0.35383 5.715,0.45264 4.15816,0.19608 6.12945,0.63822 7.366,1.65213 0.65554,0.53751 0.69103,0.62383 0.254,0.61783 -0.2794,-0.004 -0.79375,-0.12635 -1.143,-0.27226 z m -46.295,-7.80526 c -0.1721,-0.65811 0.60908,-4.40631 1.072082,-6.73549 3.572488,-14.19476 11.677132,-28.183619 20.539338,-36.518401 6.941797,-6.080507 15.106893,-10.460783 23.60939,-14.169428 2.47828,-1.052459 7.21842,-2.238086 10.41319,-2.604595 2.511905,-0.288168 2.627555,-0.279657 3.138105,0.230886 1.1507,1.150704 -0.0551,2.11376 -2.646565,2.113831 -12.289098,2.069971 -27.868233,10.170352 -36.14788,19.59133 -8.700969,10.352203 -14.07649,19.950627 -16.881948,31.425797 -0.49598,0.84626 -0.748152,3.21 -1.368832,4.55982 -1.17313,2.55127 -1.50474,2.95572 -1.72688,2.10625 z M 102.51441,91.9822 c -0.16285,-0.19624 -0.51975,-1.13885 -0.7931,-2.0947 -0.44234,-1.54678 -0.49894,-2.58995 -0.51467,-9.485707 -0.01,-4.2613 -0.14123,-11.80546 -0.29226,-16.76481 -0.37522,-12.321406 -0.37047,-14.137465 0.0409,-15.621003 0.72592,-2.618095 1.99741,-4.887788 2.38597,-4.259097 0.0716,0.115811 -0.14685,1.276997 -0.48539,2.580414 -0.73417,2.826629 -0.79146,5.329679 -0.21327,9.31797 0.22123,1.526093 0.44644,5.060714 0.50045,7.854716 0.46813,24.214657 0.49178,24.863007 0.94401,25.875517 0.51219,1.14676 0.56652,2.21665 0.13448,2.64868 -0.41325,0.41325 -1.34452,0.38489 -1.7071,-0.052 z m 15.39491,-2.10631 c -0.39818,-0.64673 -0.42866,-2.88665 -0.0773,-5.68457 0.42877,-3.414707 0.40229,-12.941927 -0.061,-21.951339 -0.32463,-6.312767 -0.81471,-16.779454 -0.85035,-18.161001 -0.0497,-1.927642 0.0305,-2.260366 0.64106,-2.660457 0.53328,-0.349415 0.79312,-0.337355 2.7305,0.126733 3.43803,0.823567 7.37412,2.031523 8.61333,2.643368 0.63129,0.311696 2.34796,0.989262 3.81481,1.5057 2.68252,0.944443 3.22728,1.219288 6.11192,3.083656 1.83663,1.187029 4.98629,4.053762 5.20258,4.735256 0.2383,0.750801 -0.11848,1.47304 -0.81388,1.647574 -0.54308,0.136306 -0.901,-0.09144 -2.33257,-1.484272 -0.93008,-0.904903 -2.2054,-1.956285 -2.83405,-2.336404 -0.62865,-0.380116 -1.74979,-1.073488 -2.49142,-1.540822 -0.74163,-0.467335 -2.57043,-1.279061 -4.064,-1.803832 -1.49357,-0.524774 -3.22993,-1.205101 -3.85859,-1.511834 -1.07967,-0.526803 -5.51619,-1.910037 -7.2925,-2.273686 l -0.8155,-0.166951 0.12655,4.780485 c 0.0696,2.629266 0.23288,5.809186 0.36284,7.066486 0.59772,5.782674 0.26622,23.889303 -0.52083,28.448 -0.26531,1.5367 -0.57129,3.4132 -0.67997,4.17 -0.18037,1.25613 -0.59621,1.88012 -0.91158,1.36791 z m 72.977,-20.958127 c -2.19977,-0.46491 -3.80461,-0.52674 -18.161,-0.69965 -9.66328,-0.11639 -16.0915,-0.29248 -16.637,-0.45575 -0.48895,-0.14635 -1.21092,-0.33841 -1.60438,-0.42681 -0.47806,-0.1074 -0.68871,-0.29729 -0.635,-0.57239 0.0732,-0.37502 1.49339,-0.40667 15.95538,-0.35558 9.32139,-1.09362 19.13847,1.379446 27.06909,1.23736 l 3.53791,-0.071 c 1.83151,-6.011713 3.14412,-12.537903 3.7292,-17.875316 l -0.95347,-0.178872 c -17.6699,-1.400006 -34.43954,3.217797 -50.87272,3.449184 l -0.28484,1.4605 c -0.52469,2.004713 -1.15407,7.743233 -1.65684,8.416127 -0.57444,0.768802 -1.14233,0.33481 -1.14233,-0.872988 0,-1.192791 0.25849,-8.674631 1.28299,-10.297917 15.89189,-2.988357 29.13657,-3.545668 44.69101,-3.942547 7.49463,-0.185146 9.16693,-0.01125 10.17111,1.057646 0.58023,0.617634 0.58335,0.653775 0.26744,3.100547 -1.66589,4.159732 -0.39262,14.904383 -4.58248,17.327106 -3.34616,0.245262 -6.89699,0.342321 -10.17407,-0.29965 z"
       id="path4496"
       inkscape:connector-curvature="0"
       sodipodi:nodetypes="czzsscscscccsssccccccccsccsscccccccsccccccccccscccscccccscscccccsccccccsczssscccszcscccccccccccccccccccssccscsccscsscscccccsssscccsssccscccccccccscccccccccccsccccccccccccccsccsccccccscccscccsccscccccccccccccccccccscsscccssccscccssccssccccccccccccccccccccccsccccccccccccccccccscccsccccccscccccccccsccscccccccccccccscccccsccscsscccccscccccccccccscccccc" />
    <text
       xml:space="preserve"
       style="font-style:normal;font-variant:normal;font-weight:normal;font-stretch:normal;font-size:18.02655602px;line-height:1.25;font-family:Arial;-inkscape-font-specification:Arial;letter-spacing:0px;word-spacing:0px;fill:#000000;fill-opacity:1;stroke:none;stroke-width:0.45066389"
       x="3.3361154"
       y="71.167953"
       id="text4504"><tspan
         sodipodi:role="line"
         id="tspan4502"
         x="3.3361154"
         y="71.167953"
         style="font-style:normal;font-variant:normal;font-weight:normal;font-stretch:normal;font-size:86.52747345px;font-family:Symbol;-inkscape-font-specification:Symbol;stroke-width:0.45066389">a</tspan></text>
    <text
       xml:space="preserve"
       style="font-style:normal;font-variant:normal;font-weight:normal;font-stretch:normal;font-size:18.02655602px;line-height:1.25;font-family:Arial;-inkscape-font-specification:Arial;letter-spacing:0px;word-spacing:0px;fill:#000000;fill-opacity:1;stroke:none;stroke-width:0.45066389"
       x="4.4768581"
       y="227.57143"
       id="text4504-9"><tspan
         sodipodi:role="line"
         id="tspan4502-8"
         x="4.4768581"
         y="227.57143"
         style="font-style:normal;font-variant:normal;font-weight:normal;font-stretch:normal;font-size:86.52747345px;font-family:Symbol;-inkscape-font-specification:Symbol;stroke-width:0.45066389">m</tspan></text>
    <text
       xml:space="preserve"
       style="font-style:normal;font-variant:normal;font-weight:normal;font-stretch:normal;font-size:18.02655602px;line-height:1.25;font-family:Arial;-inkscape-font-specification:Arial;letter-spacing:0px;word-spacing:0px;fill:#000000;fill-opacity:1;stroke:none;stroke-width:0.45066389"
       x="149.70741"
       y="236.82413"
       id="text4504-9-8"><tspan
         sodipodi:role="line"
         id="tspan4502-8-8"
         x="149.70741"
         y="236.82413"
         style="font-style:normal;font-variant:normal;font-weight:normal;font-stretch:normal;font-size:86.52747345px;font-family:Symbol;-inkscape-font-specification:Symbol;stroke-width:0.45066389">w</tspan></text>
  </g>
</svg>
